<?xml version="1.0" encoding="utf-8"?>
<!-- Generator: Adobe Illustrator 16.0.3, SVG Export Plug-In . SVG Version: 6.00 Build 0)  -->
<!DOCTYPE svg PUBLIC "-//W3C//DTD SVG 1.1//EN" "http://www.w3.org/Graphics/SVG/1.1/DTD/svg11.dtd">
<svg version="1.1" id="Layer_1" xmlns="http://www.w3.org/2000/svg" xmlns:xlink="http://www.w3.org/1999/xlink" x="0px" y="0px"
	 width="234.5px" height="26px" viewBox="0 0 234.5 26" enable-background="new 0 0 234.5 26" xml:space="preserve">
<path display="none" fill="#11142D" d="M46.027,23V5.12h3.12l6.696,9.096h-1.488l6.552-9.096h3.12V23h-3.288V8.84l1.272,0.312
	L55.219,18.2h-0.384l-6.624-9.048l1.08-0.312V23H46.027z M73.568,23.288c-1.28,0-2.448-0.296-3.504-0.888
	c-1.04-0.592-1.872-1.4-2.496-2.424c-0.608-1.024-0.912-2.192-0.912-3.504c0-1.313,0.304-2.48,0.912-3.505
	c0.624-1.024,1.456-1.832,2.496-2.424s2.208-0.888,3.504-0.888c1.28,0,2.44,0.296,3.48,0.888c1.04,0.592,1.864,1.4,2.472,2.424
	c0.624,1.009,0.936,2.177,0.936,3.505c0,1.312-0.312,2.479-0.936,3.504C78.896,21,78.064,21.809,77.024,22.4
	S74.833,23.288,73.568,23.288z M73.568,20.408c0.704,0,1.32-0.168,1.848-0.504c0.544-0.336,0.968-0.801,1.272-1.393
	c0.32-0.607,0.48-1.287,0.48-2.039c0-0.769-0.16-1.44-0.48-2.017c-0.304-0.592-0.728-1.056-1.272-1.392
	c-0.528-0.352-1.144-0.528-1.848-0.528c-0.72,0-1.352,0.176-1.896,0.528c-0.544,0.336-0.976,0.8-1.296,1.392
	c-0.304,0.576-0.456,1.248-0.456,2.017c0,0.752,0.152,1.432,0.456,2.039c0.32,0.592,0.752,1.057,1.296,1.393
	C72.217,20.24,72.849,20.408,73.568,20.408z M88.913,23.288c-1.265,0-2.392-0.296-3.384-0.888c-0.992-0.608-1.776-1.433-2.352-2.473
	c-0.576-1.039-0.864-2.191-0.864-3.455c0-1.281,0.288-2.433,0.864-3.457c0.576-1.024,1.36-1.84,2.352-2.448
	c1.008-0.608,2.127-0.912,3.36-0.912c0.992,0,1.872,0.2,2.641,0.6c0.783,0.384,1.399,0.928,1.848,1.632l-0.48,0.648V4.832h3.145V23
	h-2.977v-2.52l0.336,0.623c-0.447,0.705-1.071,1.248-1.871,1.633C90.729,23.104,89.857,23.288,88.913,23.288z M89.249,20.408
	c0.72,0,1.353-0.168,1.896-0.504c0.545-0.336,0.969-0.801,1.272-1.393c0.319-0.592,0.479-1.271,0.479-2.039
	c0-0.753-0.16-1.425-0.479-2.017c-0.304-0.608-0.728-1.08-1.272-1.416c-0.543-0.336-1.176-0.504-1.896-0.504
	c-0.704,0-1.336,0.176-1.896,0.528c-0.56,0.336-1,0.8-1.32,1.392c-0.304,0.576-0.456,1.248-0.456,2.017
	c0,0.768,0.152,1.447,0.456,2.039c0.32,0.592,0.76,1.057,1.32,1.393S88.545,20.408,89.249,20.408z M105.158,23.288
	c-1.344,0-2.52-0.304-3.528-0.912c-1.008-0.608-1.792-1.433-2.353-2.472c-0.56-1.04-0.84-2.192-0.84-3.456
	c0-1.313,0.28-2.472,0.84-3.48c0.576-1.024,1.353-1.832,2.328-2.424c0.992-0.592,2.097-0.888,3.313-0.888
	c1.023,0,1.92,0.168,2.688,0.504c0.785,0.336,1.449,0.8,1.992,1.392c0.545,0.592,0.961,1.272,1.248,2.04
	c0.288,0.752,0.432,1.568,0.432,2.448c0,0.224-0.016,0.456-0.047,0.696c-0.017,0.24-0.057,0.447-0.121,0.623h-10.08V14.96h8.305
	l-1.488,1.128c0.145-0.736,0.104-1.393-0.119-1.968c-0.209-0.576-0.561-1.032-1.057-1.368c-0.48-0.336-1.064-0.504-1.752-0.504
	c-0.656,0-1.24,0.168-1.752,0.504c-0.512,0.32-0.904,0.8-1.176,1.439c-0.256,0.625-0.352,1.385-0.288,2.281
	c-0.063,0.799,0.04,1.512,0.312,2.135c0.288,0.608,0.704,1.08,1.248,1.416c0.561,0.336,1.2,0.504,1.92,0.504
	c0.721,0,1.328-0.151,1.824-0.455c0.512-0.305,0.912-0.713,1.2-1.225l2.544,1.248c-0.256,0.624-0.656,1.176-1.2,1.656
	s-1.192,0.855-1.944,1.128C106.87,23.152,106.055,23.288,105.158,23.288z M113.661,23V9.944h2.952v2.904l-0.24-0.432
	c0.304-0.976,0.775-1.656,1.416-2.04c0.656-0.384,1.439-0.576,2.352-0.576h0.769v2.784h-1.128c-0.896,0-1.616,0.28-2.16,0.84
	c-0.544,0.544-0.816,1.313-0.816,2.305V23H113.661z M122.639,23V9.944h2.951v2.568l-0.24-0.456c0.305-0.784,0.801-1.376,1.488-1.776
	c0.704-0.416,1.52-0.624,2.448-0.624c0.96,0,1.808,0.208,2.544,0.624c0.752,0.416,1.336,1,1.752,1.752
	c0.416,0.736,0.624,1.592,0.624,2.567V23h-3.144v-7.656c0-0.576-0.112-1.072-0.336-1.488c-0.225-0.416-0.537-0.735-0.937-0.959
	c-0.384-0.24-0.84-0.36-1.368-0.36c-0.512,0-0.968,0.12-1.367,0.36c-0.4,0.224-0.713,0.544-0.937,0.959
	c-0.224,0.416-0.336,0.912-0.336,1.488V23H122.639z M136.863,23V9.944h3.145V23H136.863z M136.863,8.48V5.12h3.145v3.36H136.863z
	 M141.783,23v-2.544l7.584-8.784l0.48,1.08h-7.729V9.944h10.512v2.568l-7.439,8.784l-0.48-1.08h7.969V23H141.783z M160.658,23.288
	c-1.344,0-2.52-0.304-3.528-0.912c-1.008-0.608-1.792-1.433-2.353-2.472c-0.56-1.04-0.84-2.192-0.84-3.456
	c0-1.313,0.28-2.472,0.84-3.48c0.576-1.024,1.353-1.832,2.328-2.424c0.992-0.592,2.097-0.888,3.313-0.888
	c1.023,0,1.92,0.168,2.688,0.504c0.785,0.336,1.449,0.8,1.992,1.392c0.545,0.592,0.961,1.272,1.248,2.04
	c0.288,0.752,0.432,1.568,0.432,2.448c0,0.224-0.016,0.456-0.047,0.696c-0.017,0.24-0.057,0.447-0.121,0.623h-10.08V14.96h8.305
	l-1.488,1.128c0.145-0.736,0.104-1.393-0.119-1.968c-0.209-0.576-0.561-1.032-1.057-1.368c-0.48-0.336-1.064-0.504-1.752-0.504
	c-0.656,0-1.24,0.168-1.752,0.504c-0.512,0.32-0.904,0.8-1.176,1.439c-0.256,0.625-0.352,1.385-0.288,2.281
	c-0.063,0.799,0.04,1.512,0.312,2.135c0.288,0.608,0.704,1.08,1.248,1.416c0.561,0.336,1.2,0.504,1.92,0.504
	c0.721,0,1.328-0.151,1.824-0.455c0.512-0.305,0.912-0.713,1.2-1.225l2.544,1.248c-0.256,0.624-0.656,1.176-1.2,1.656
	s-1.192,0.855-1.944,1.128C162.37,23.152,161.555,23.288,160.658,23.288z"/>
<path display="none" fill="#615DFF" d="M20.137,26c2.762,0,5.047-2.258,4.537-4.971c-0.32-1.702-0.806-3.37-1.45-4.979
	c-1.264-3.155-3.115-6.021-5.449-8.436c-2.334-2.414-5.105-4.33-8.155-5.636C8.114,1.334,6.555,0.844,4.965,0.512
	C2.262-0.051,0,2.239,0,5v16c0,2.762,2.239,5,5,5H20.137z"/>
<g display="none">
	<path display="inline" fill="#3DD9EB" d="M13.701,26c-2.761,0-5.047-2.258-4.536-4.971c0.32-1.702,0.805-3.37,1.45-4.979
		c1.263-3.155,3.115-6.021,5.449-8.436c2.334-2.414,5.105-4.33,8.155-5.636c1.506-0.645,3.064-1.135,4.655-1.467
		C31.577-0.051,33.838,2.239,33.838,5v16c0,2.762-2.239,5-5,5H13.701z"/>
</g>
<g id="Layer_2">
	<g>
		<g>
			<path fill="#008529" d="M31.344,7.806h-4.698c-1.164,0-1.311-0.139-1.311-1.233V2.151c0-1.263-1.094-2.292-2.435-2.292h-6.022
				c-1.342,0-2.434,1.029-2.434,2.292v6.485c0.032,0.548,0.26,1.042,0.626,1.424l7.544,7.1c0.287,0.262,0.268,0.615,0.268,0.615
				v4.686c0,1.099-0.145,1.236-1.305,1.236h-3.376c-1.166,0-1.311-0.138-1.311-1.236v-4.42c0-1.263-1.091-2.29-2.435-2.29H9.758
				c-1.164,0-1.312-0.137-1.312-1.235v-3.175c0-1.128,0.096-1.233,1.136-1.233h1.296c0.676,0,1.225-0.517,1.225-1.153
				c0-0.635-0.549-1.149-1.225-1.149H8.438C7.093,7.806,6,8.831,6,10.095v5.668c0,1.262,1.093,2.29,2.438,2.29h4.697
				c1.164,0,1.31,0.138,1.31,1.234v4.419c0,1.263,1.091,2.293,2.434,2.293H22.9c1.341,0,2.435-1.03,2.435-2.293v-6.324
				c-0.009-0.58-0.104-1.011-0.632-1.506l-7.547-7.103c-0.164-0.165-0.264-0.386-0.264-0.628h0V3.471
				c0-0.547-0.035-0.795,0.204-1.044c0.251-0.258,0.53-0.265,1.107-0.265h3.376c0.654,0,0.879,0.057,1.089,0.259
				c0.234,0.228,0.22,0.554,0.22,1.049v4.347c0,1.265,1.091,2.291,2.436,2.291h4.697c1.167,0,1.312,0.138,1.312,1.233v3.175
				c0,1.095-0.106,1.221-1.014,1.235c0,0-0.011-0.002-0.019-0.002h-1.406c-0.639,0-1.171,0.469-1.216,1.069
				c-0.007,0.03-0.007,0.157,0.003,0.195c0.06,0.593,0.583,1.038,1.213,1.038l2.45,0.002c1.344,0,2.436-1.028,2.436-2.29v-5.668
				C33.78,8.831,32.688,7.806,31.344,7.806"/>
			<path fill="#008529" d="M121.82,5.373h-2.797c-0.349,0-0.632,0.268-0.632,0.593v9.644c0,0.15,0.008,0.261-0.112,0.296
				c-0.098,0.035-0.201-0.07-0.273-0.175l-7.991-9.887c-0.208-0.257-0.467-0.47-1.013-0.47h-2.529c-0.35,0-0.631,0.268-0.631,0.593
				v16.401c0,0.327,0.234,0.594,0.631,0.594h2.798c0.397,0,0.63-0.267,0.63-0.594v-9.992c0-0.088-0.002-0.15,0.017-0.196
				c0.048-0.098,0.181-0.115,0.276-0.031c0.034,0.031,0.054,0.055,0.088,0.103c0,0,8.024,9.909,8.289,10.237
				c0.271,0.35,0.594,0.473,1.013,0.473h2.237c0.387-0.029,0.626-0.244,0.626-0.594V5.966C122.446,5.641,122.169,5.373,121.82,5.373
				"/>
			<path fill="#008529" d="M100.776,5.373h-2.798c-0.35,0-0.633,0.268-0.633,0.593v9.644c0,0.15,0.011,0.261-0.105,0.296
				c-0.104,0.035-0.201-0.07-0.275-0.175l-7.992-9.887c-0.216-0.257-0.471-0.47-1.011-0.47h-2.534c-0.347,0-0.629,0.268-0.629,0.593
				v16.401c0,0.327,0.237,0.594,0.629,0.594h2.801c0.396,0,0.628-0.267,0.628-0.594v-9.992c0-0.088-0.004-0.15,0.021-0.196
				c0.044-0.098,0.176-0.115,0.272-0.031c0.033,0.031,0.047,0.055,0.089,0.103c0,0,8.022,9.909,8.286,10.237
				c0.278,0.35,0.597,0.473,1.014,0.473h2.238c0.388-0.029,0.629-0.244,0.629-0.594V5.966
				C101.405,5.641,101.123,5.373,100.776,5.373"/>
			<path fill="#008529" d="M54.279,12.438c-3.229-0.778-4.025-1.155-4.025-2.309v-0.051c0-0.854,0.825-1.532,2.4-1.532
				c0.276,0,0.553,0.021,0.831,0.063c0.08,0.008,0.155,0.028,0.232,0.037c0.928,0.172,1.792,0.528,2.41,0.834
				c0.067,0.039,0.696,0.387,0.696,0.387c0.005,0,0.255,0.124,0.259,0.124c0.319,0.139,0.567,0.062,0.782-0.197l1.439-1.962
				l0.009-0.015c0.064-0.093,0.1-0.204,0.1-0.323c0-0.178-0.059-0.309-0.191-0.416c-0.029-0.02-0.093-0.068-0.122-0.089
				c-0.105-0.072-0.22-0.144-0.329-0.213c-0.008-0.004-0.015-0.011-0.023-0.013c-0.105-0.063-0.211-0.129-0.32-0.191
				c-0.023-0.012-0.04-0.018-0.062-0.034c-0.095-0.051-0.192-0.102-0.289-0.154c-0.051-0.024-0.097-0.045-0.142-0.072
				c-0.077-0.037-0.15-0.074-0.225-0.104c-1.474-0.699-3.145-1.076-5.001-1.076h-0.005c-3.813-0.005-6.535,2.11-6.535,5.299v0.051
				c0,3.488,2.429,4.469,6.191,5.372c3.119,0.75,3.76,1.253,3.76,2.233v0.053c0,1.028-1.014,1.656-2.694,1.656
				c-0.787,0-1.523-0.115-2.222-0.32c-0.053-0.016-0.107-0.037-0.164-0.052c-0.021-0.01-0.046-0.014-0.069-0.025
				c-0.339-0.111-0.652-0.244-0.939-0.374c-0.082-0.033-0.162-0.075-0.238-0.116l0,0c-0.475-0.24-0.878-0.479-1.323-0.795
				c-0.063-0.044-0.162-0.112-0.17-0.118c-0.282-0.168-0.61-0.135-0.853,0.122l-1.557,1.755c-0.037,0.047-0.058,0.08-0.084,0.123
				c-0.07,0.092-0.123,0.206-0.123,0.326c0,0.164,0.045,0.272,0.158,0.384c0.048,0.051,0.091,0.08,0.188,0.164
				c2.138,1.565,4.737,2.342,7.315,2.342c4.028,0,6.852-1.957,6.852-5.447v-0.055C60.197,14.649,58.071,13.365,54.279,12.438"/>
			<path fill="#008529" d="M73.93,5.915c-0.133-0.296-0.455-0.541-0.869-0.541h-2.514c-0.421,0-0.739,0.245-0.871,0.541
				l-7.469,16.507c-0.131,0.3,0.039,0.544,0.383,0.544h2.913c0.345,0,0.667-0.135,0.864-0.546l1.298-3.011
				c0.134-0.302,0.272-0.335,0.6-0.239c0,0,1.407,0.409,3.484,0.409c2.282,0,3.46-0.373,3.46-0.373
				c0.325-0.086,0.5-0.099,0.63,0.203l1.295,3.011c0.233,0.474,0.518,0.546,0.861,0.546h3.02c0.342,0,0.519-0.244,0.381-0.544
				L73.93,5.915z M74.001,15.766c-0.308,0.128-0.969,0.31-2.251,0.31c-1.313,0-1.957-0.174-2.246-0.297h0.005
				c-0.121-0.048-0.179-0.169-0.15-0.287l2.236-5.138c0,0,0.003-0.008,0.009-0.024l0.006-0.021c0.03-0.048,0.081-0.079,0.14-0.079
				c0.062,0,0.112,0.028,0.14,0.074l0.013,0.032c0.005,0.013,0.008,0.021,0.008,0.021l2.224,5.099
				C74.182,15.576,74.125,15.717,74.001,15.766"/>
			<path fill="#008529" d="M137.546,5.915c-0.137-0.296-0.455-0.541-0.867-0.541h-2.514c-0.426,0-0.735,0.245-0.873,0.541
				l-7.465,16.507c-0.134,0.3,0.036,0.544,0.379,0.544h2.915c0.341,0,0.666-0.135,0.861-0.546l1.304-3.011
				c0.135-0.302,0.27-0.335,0.594-0.239c0,0,1.412,0.409,3.49,0.409c2.277,0,3.463-0.373,3.463-0.373
				c0.318-0.086,0.494-0.099,0.625,0.203l1.298,3.011c0.232,0.474,0.518,0.546,0.855,0.546h3.023c0.345,0,0.515-0.244,0.385-0.544
				L137.546,5.915z M137.616,15.766c-0.309,0.128-0.972,0.31-2.246,0.31c-1.314,0-1.961-0.174-2.256-0.297h0.011
				c-0.125-0.048-0.182-0.169-0.153-0.287l2.241-5.138c0,0,0.002-0.008,0.006-0.024l0.011-0.021
				c0.026-0.048,0.081-0.079,0.141-0.079c0.057,0,0.104,0.028,0.135,0.074l0.011,0.032c0.007,0.013,0.011,0.021,0.011,0.021
				l2.222,5.099C137.807,15.576,137.743,15.717,137.616,15.766"/>
			<path fill="#4D4D4D" d="M156.657,22.861c-0.078,0-0.148-0.038-0.187-0.107l-9.096-17.166c-0.051-0.098-0.011-0.214,0.092-0.261
				c0.104-0.048,0.224-0.008,0.274,0.087l9.101,17.164c0.051,0.102,0.012,0.214-0.093,0.261
				C156.717,22.854,156.687,22.861,156.657,22.861"/>
		</g>
		<g>
			<path fill="#4D4D4D" d="M162.56,6.972h2.051c1.862,0,3.144,1.2,3.144,2.766v0.017c0,1.565-1.281,2.781-3.144,2.781h-2.051V6.972z
				 M164.61,11.956c1.498,0,2.451-0.954,2.451-2.185V9.754c0-1.232-0.953-2.204-2.451-2.204h-1.382v4.405H164.61z"/>
			<path fill="#4D4D4D" d="M169.306,6.972h0.669v5.564h-0.669V6.972z"/>
			<path fill="#4D4D4D" d="M171.285,6.972h0.743l2.103,4.792l2.11-4.792h0.72l-2.544,5.604h-0.588L171.285,6.972z"/>
			<path fill="#4D4D4D" d="M178.269,6.972h0.667v5.564h-0.667V6.972z"/>
			<path fill="#4D4D4D" d="M180.361,11.726l0.414-0.461c0.614,0.524,1.207,0.786,2.026,0.786c0.796,0,1.32-0.398,1.32-0.945V11.09
				c0-0.517-0.298-0.812-1.541-1.059c-1.358-0.277-1.984-0.69-1.984-1.604V8.411c0-0.876,0.82-1.519,1.943-1.519
				c0.861,0,1.479,0.229,2.081,0.684l-0.39,0.484c-0.549-0.421-1.1-0.604-1.706-0.604c-0.77,0-1.262,0.397-1.262,0.898V8.37
				c0,0.526,0.304,0.82,1.607,1.081c1.314,0.271,1.927,0.725,1.927,1.575v0.016c0,0.954-0.845,1.574-2.021,1.574
				C181.839,12.616,181.072,12.323,180.361,11.726z"/>
			<path fill="#4D4D4D" d="M186.3,6.972h0.664v5.564H186.3V6.972z"/>
			<path fill="#4D4D4D" d="M188.517,9.771V9.754c0-1.535,1.227-2.878,3.025-2.878c1.801,0,3.006,1.328,3.006,2.861v0.017
				c0,1.534-1.224,2.876-3.021,2.876C189.728,12.631,188.517,11.304,188.517,9.771z M193.855,9.771V9.754
				c0-1.265-0.978-2.298-2.328-2.298s-2.313,1.018-2.313,2.281v0.017c0,1.263,0.979,2.296,2.328,2.296
				C192.893,12.051,193.855,11.033,193.855,9.771z M192.107,5.375l0.667,0.286l-0.971,0.74h-0.538L192.107,5.375z"/>
			<path fill="#4D4D4D" d="M196.045,6.972h0.625l3.723,4.46v-4.46h0.651v5.564h-0.532l-3.817-4.562v4.562h-0.649V6.972z"/>
		</g>
		<g>
			<path fill="#4D4D4D" d="M165.35,15.351h0.631l2.71,5.638h-0.72l-0.701-1.478h-3.235l-0.707,1.478h-0.687L165.35,15.351z
				 M167.012,18.943l-1.356-2.857l-1.359,2.857H167.012z"/>
			<path fill="#4D4D4D" d="M169.743,15.393h0.68l2.169,3.055l2.167-3.055h0.678v5.596h-0.669v-4.533l-2.168,2.999h-0.032l-2.17-2.99
				v4.524h-0.654V15.393z"/>
			<path fill="#4D4D4D" d="M176.999,15.393h2.532c0.682,0,1.218,0.183,1.556,0.494c0.247,0.24,0.382,0.537,0.382,0.897v0.015
				c0,0.728-0.475,1.104-0.941,1.295c0.705,0.203,1.274,0.584,1.274,1.351v0.018c0,0.958-0.86,1.526-2.159,1.526h-2.644V15.393z
				 M179.422,17.887c0.806,0,1.368-0.345,1.368-1v-0.016c0-0.555-0.468-0.912-1.319-0.912h-1.809v1.928H179.422z M179.662,20.42
				c0.897,0,1.459-0.375,1.459-0.997v-0.015c0-0.611-0.545-0.961-1.581-0.961h-1.878v1.973H179.662z"/>
			<path fill="#4D4D4D" d="M182.919,18.646v-3.253h0.673v3.215c0,1.207,0.682,1.884,1.82,1.884c1.096,0,1.793-0.621,1.793-1.846
				v-3.253h0.672v3.206c0,1.632-0.997,2.479-2.482,2.479C183.925,21.077,182.919,20.23,182.919,18.646z"/>
			<path fill="#4D4D4D" d="M189.344,15.393h0.672v5.013h3.35v0.583h-4.021V15.393z"/>
			<path fill="#4D4D4D" d="M196.686,15.351h0.631l2.713,5.638h-0.726l-0.699-1.478h-3.236l-0.704,1.478h-0.689L196.686,15.351z
				 M198.341,18.943l-1.35-2.857l-1.358,2.857H198.341z"/>
			<path fill="#4D4D4D" d="M202.651,15.975h-1.996v-0.582h4.673v0.582h-1.995v5.014h-0.682V15.975z"/>
			<path fill="#4D4D4D" d="M206.203,18.207V18.19c0-1.544,1.233-2.896,3.04-2.896c1.811,0,3.027,1.335,3.027,2.881v0.015
				c0,1.546-1.231,2.896-3.043,2.896C207.418,21.086,206.203,19.748,206.203,18.207z M211.574,18.207V18.19
				c0-1.272-0.986-2.312-2.347-2.312c-1.358,0-2.329,1.023-2.329,2.297v0.015c0,1.271,0.985,2.313,2.345,2.313
				S211.574,19.476,211.574,18.207z"/>
			<path fill="#4D4D4D" d="M213.57,15.393h2.555c0.733,0,1.317,0.205,1.693,0.558c0.287,0.273,0.457,0.665,0.457,1.106v0.014
				c0,0.928-0.678,1.472-1.613,1.632l1.826,2.286h-0.825l-1.724-2.175h-1.699v2.175h-0.67V15.393z M216.065,18.248
				c0.894,0,1.532-0.433,1.532-1.153v-0.016c0-0.688-0.562-1.104-1.523-1.104h-1.834v2.273H216.065z"/>
			<path fill="#4D4D4D" d="M219.65,15.393h0.672v5.596h-0.672V15.393z"/>
			<path fill="#4D4D4D" d="M224.147,15.351h0.63l2.71,5.638h-0.724l-0.696-1.478h-3.238l-0.705,1.478h-0.688L224.147,15.351z
				 M225.804,18.943l-1.351-2.857l-1.36,2.857H225.804z"/>
		</g>
	</g>
</g>
</svg>
